<svg xmlns="http://www.w3.org/2000/svg" width="48" height="48" fill="#2196F3" viewBox="0 0 48 48"><g fill="#2196F3"><path stroke-width="3" d="m8 6c-2.216 0-4 1.784-4 4v28c0 2.216 1.784 4 4 4h32c2.216 0 4-1.784 4-4v-28c0-2.216-1.784-4-4-4zm0 4h32v28h-32z" style="fill:#0000d6"/><rect width="12.221" height="3.016" x="22.05" y="23.09" style="fill:#0000d6"/><rect width="3.955" height="7.018" x="15.583" y="18.834" style="fill:#0000d6" transform="matrix(1, 0, -1.015132, 1, 19.660191, 0.148216)"/><rect width="3.955" height="7.018" x="15.583" y="18.834" style="fill:#0000d6" transform="matrix(1, 0, -1.015132, -1, 19.66019, 37.816215)"/></g></svg>